<?xml version="1.0" encoding="utf-8"?>
<!-- Generator: Adobe Illustrator 18.0.0, SVG Export Plug-In . SVG Version: 6.00 Build 0)  -->
<!DOCTYPE svg PUBLIC "-//W3C//DTD SVG 1.1//EN" "http://www.w3.org/Graphics/SVG/1.1/DTD/svg11.dtd">
<svg version="1.1" id="Layer_1" xmlns="http://www.w3.org/2000/svg" xmlns:xlink="http://www.w3.org/1999/xlink" x="0px" y="0px"
	 viewBox="0 0 612 792" enable-background="new 0 0 612 792" xml:space="preserve">
<g>
	<path fill="#FFFFFF" d="M612.2,359.5c-5.9-15.8-19.4-16.3-33.3-16.5c-1.2-7-10.3-11.6-16.7-5.6c-15.1,14.4-36.7,20.3-56.4,25.8
		c-25.4,7-50.8,13.8-76.3,20.5c-27,7.1-53.1,10.8-81,10.6c-23.1-0.1-46.3-1.4-69.3,0.1c2.2-2.2,5.7-3.1,11.3-3.9
		c11-1.8,20.7-7.4,25.7-17.6c5.4-11.2,2.2-25.8-7.6-33.7c-4.7-3.8-9.6-5.2-14.3-4.7c-2.3-12.4-8.3-23.5-20.3-30
		c-16.2-8.8-36.7-6-54-3c-2.9,0.5-4.8,2.1-6,4.1c-5.4,3.6-9.8,8.3-13.4,13.6c-0.1,0.1-0.2,0.1-0.3,0.1c-3.1,0.9-6.1,0-9.2-0.4
		c-0.5-0.1-1,0-1.5,0.1c-0.1-1.8-0.6-3.6-1.5-5.5c-10.4-21.8-11.6-50.2-30.8-67c-0.9-0.8-1.8-1.5-2.8-2
		c-16.2-40.7-32.4-84.8-64.7-115.6c-6.4-6.1-16.5-1.6-16.8,6.9c-0.2,4.2-0.5,8.1-0.5,12c-0.8,0.4-1.7,0.7-2.5,1.2
		c-4.3,2-5.2,6.9-4.5,11.1c0.8,5.3,3.1,12.3,8.4,14.8c4.5,2.1,8.1,1.5,12.6,2.1c0.3,0.5,0.9,1.2,1.8,2.2c1.2,1.9,2.3,3.9,3.2,5.9
		c2.4,4.8,4.3,9.9,6.5,14.8c4.5,9.5,7.1,20.1,10,30.2c5.7,20.1,11.1,40.2,17.8,60c2.9,8.5,5.4,16.6,7.1,25.4
		c1.4,6.9,2.9,14.1,6.5,20.3c2.1,3.7,19.5,24.6,26,31.4c0.3,1.4,0.6,2.8,0.9,4.1c0.3,1.5,0.6,2.9,0.8,4.4c-1,9.4-4.3,34.9-3.1,37.6
		c-0.6,2.7-1.3,5.5-2,8.2c-7.4,28.3-18,55.6-17.3,84.7c-7.8-2.9-15.8-6.4-23.7-8.4c-0.6-0.5-1.3-1-2-1.5c-3.2-1.9-7.9-2.9-11.4-1.5
		c-0.3,0.1-0.7,0.2-1,0.3c-2.3-0.1-4.6-0.1-7,0.6c-3.5,1.1-6.4,3.2-8.6,5.8c-1.4,1-2.7,2.1-3.9,3.3c-12.3,12.3-15.8,32.5-17.9,49
		c-0.6,5-1.1,9.9-1.6,14.9c-6-3.4-13.6-4.7-20.2-5.8c-10.2-1.7-20.5-3-30.6-5.4c-7.2-1.8-15.6,6.1-11.8,13.3
		c-1.5,0.9-2.7,2.1-3.5,3.5c-2.9,5.3-0.5,13.2,5.9,14.4c3.8,0.8,7-0.2,10.4-1.2c9.4-1.7,19.1-4.1,28.6-2.4c11,1.9,5.8,10.2,3.7,17.9
		c-2.2,7.9-3.3,17.2,2,24.2c3.9,5.2,9.7,8.1,15.8,8.9c1.2,0.4,2.6,0.6,4.1,0.5c21.6-1.9,37.4-21.9,38.1-43c0.4-0.7,0.8-1.5,1-2.3
		c0.4-1.4,0.8-2.7,1.3-4.1c1.3-3.4,2.5-6.8,3.7-10.2c1.7-4.1,3.6-8.1,6-11.8c5.2,5.6,10.2,11.3,16.5,15.5c4.7,3.2,9.6,5.8,14.6,8
		c2.7,1.5,5.6,2.9,8.5,4.1c-1.9,20-14.4,38-24.5,54.8c-8.2,13.7-26.2,8.4-37.6,1.2c-1.8-1.4-3.6-2.8-5.6-4.1
		c-9.2-6.2-20.7,8.6-12,15.4c0.1,0.1,0.1,0.1,0.1,0.1c-10.7,1.9-22.2,1-32.6,3.6c-9.8,2.5-8.9,16.1,0,19c2.9,1,5.8,1.5,8.8,1.9
		c-1.9,1.3-3.9,2.5-5.8,3.8c-9.2,5.9-3.4,21.1,7.6,18c11.2-3.2,19.7-11.3,30.5-15c11-3.8,20.7,10.1,29.2,15.1
		c21.4,12.6,45.8-6.2,59.2-21.9c7.1-8.2,13.1-17.2,19.5-26c3.2-4.3,6.7-8.4,9.4-13.1c2.9-5.3,4.8-11.3,8.9-15.9c1-1.1,6.3-1.4,7.8-2
		c3.3-1.1,5.9-3.5,8.5-5.8c0.6-0.6,1.3-1.2,1.9-1.8c7.2-3.2,13.8-7,18.7-15.1c6.3-10.4,10.8-25.3,10.7-37.5c0-1.2-0.2-2.3-0.6-3.3
		c-0.4-20.7,12.4-38.6,19.3-57.5c7.1-19.6,13.7-38.3,29.3-53c15.6-14.8,39.1-11.7,58.8-10.9c11.6,0.4,23.5,0.6,35.3-0.3
		c1.3,0.5,2.7,0.7,4.5,0.5c0.9-0.1,1.8-0.3,2.6-0.4c0,0,0.2,0,0.3-0.1c7.7-1.2,15.2-3.1,22.7-5.1c1.1-0.3,2-0.8,2.9-1.3
		c2.2-0.7,4.4-1.5,6.5-2.6c2.9-1.5,5.8-3.1,8.7-4.8c0.7-0.1,1.5-0.3,2.3-0.6c13.6-5.2,28.5-8.8,41-16.3c8-4.8,14.6-11.7,21.2-18.3
		c8.1-4.4,15.8-9.4,24-13.2c3.6-0.5,20-2.2,22.1-3.4c13.2,5.7,27.7-0.7,40.7-5.2C610.1,369.9,614.2,364.7,612.2,359.5z"/>
</g>
</svg>
