<?xml version="1.0" encoding="utf-8"?>
<!-- Generator: Adobe Illustrator 18.0.0, SVG Export Plug-In . SVG Version: 6.00 Build 0)  -->
<!DOCTYPE svg PUBLIC "-//W3C//DTD SVG 1.1//EN" "http://www.w3.org/Graphics/SVG/1.1/DTD/svg11.dtd">
<svg version="1.1" id="Layer_1" xmlns="http://www.w3.org/2000/svg" xmlns:xlink="http://www.w3.org/1999/xlink" x="0px" y="0px"
	 viewBox="0 0 612 792" enable-background="new 0 0 612 792" xml:space="preserve">
<path fill="#FFFFFF" d="M608.6,322c0,0-34-6.1-39.6-6.9c-27.1-3.5-90.7,6.9-90.7,6.9s-21-5.9-35.3-16.1c-7.8-5.5-50.4-9.5-59.5-6.6
	c-13.3,4.2-33.2,25.5-45.3,32.5c-5.9,3.3-25.5,8.5-25.5,8.5l-103.3-94.8c0,0-96.1-87-134.5-106.2c-11.1-5.6-24.4-11-36.5-13.8
	c-73.9-16.3,0.4,78.5,5.8,83.9c2.6,2.5,31,24,31,24S50,235.9,75,275c8.4,13.1,14.6,15.1,29.7,34.5c3.5,4.6,26.5,21.6,26.5,21.6
	s-17.2,6-7.9,19c8.6,12.1,34.1,42.5,52.2,56.9c18.4,14.8,57.2,41.6,59.3,43.9c7.8,8.2-12.5,41.8-11.6,61.6c1.7,34.6,13,65.7,13,65.7
	l26.9,73.6l11.3,31.2c0,0,11.9,13.7,17,16.9c19,11.6,66.3,21.9,87.7,15.7c5.5-1.6,15.9-10,16.9-15.7c1.8-9.7-12.7-37.3-12.7-37.3
	s22.7,23.7,34.4,23.6c15-0.1,55-26.2,55.9-31.4c2.7-14.8-40.8-49.6-40.8-49.6s30.1,20.9,41.1,18.4c2.8-0.6,5.7-7,5.6-9.9
	c-0.5-16-27.2-42-39.5-52.2c-5.2-4.3-18.4-15.6-18.4-15.6l-29-19.1l-36.4-15.4c-21.3-15.6,23-8.4,41.6-26.9
	c21.6-21.5,11.2-51.5,11.2-51.5s18.2-0.2,26.8-16.5c7.9-15.1,20.2-55.6,37.1-66.4c14.4-9.3,48.9-21.5,66.1-23
	c10.5-1,28.3-3,38.9-3.3C584.5,323.4,608.6,322,608.6,322z"/>
</svg>
