<?xml version="1.0" encoding="utf-8"?>
<!-- Generator: Adobe Illustrator 18.0.0, SVG Export Plug-In . SVG Version: 6.00 Build 0)  -->
<!DOCTYPE svg PUBLIC "-//W3C//DTD SVG 1.1//EN" "http://www.w3.org/Graphics/SVG/1.1/DTD/svg11.dtd">
<svg version="1.1" id="Layer_1" xmlns="http://www.w3.org/2000/svg" xmlns:xlink="http://www.w3.org/1999/xlink" x="0px" y="0px"
	 viewBox="-2.3 0 466.3 275.5" enable-background="new -2.3 0 466.3 275.5" xml:space="preserve">
<g>
	<g opacity="0.9">
		<path fill="#D2514C" d="M401.6,111.6c-2.7-7.3-9.1-7.6-15.6-7.7c-0.6-3.3-4.8-5.4-7.8-2.6c-7,6.7-17.1,9.5-26.3,12
			c-11.8,3.3-23.7,6.5-35.6,9.6c-12.6,3.3-24.8,5.1-37.8,5c-10.8,0-21.6-0.7-32.4,0.1c1-1.1,2.7-1.4,5.3-1.8c5.1-0.8,9.7-3.4,12-8.2
			c2.5-5.2,1-12.1-3.5-15.7c-2.2-1.8-4.5-2.4-6.7-2.2c-1.1-5.8-3.9-10.9-9.5-14c-7.5-4.1-17.1-2.8-25.2-1.4c-1.4,0.2-2.3,1-2.8,1.9
			c-2.5,1.7-4.6,3.9-6.3,6.4c-0.1,0-0.1,0-0.1,0c-1.4,0.4-2.8,0-4.3-0.2c-0.3,0-0.5,0-0.7,0c-0.1-0.8-0.3-1.7-0.7-2.6
			c-4.9-10.2-5.4-23.4-14.4-31.3c-0.4-0.4-0.9-0.7-1.3-0.9c-7.6-19-15.2-39.6-30.2-54c-2.9-2.8-7.7-0.7-7.8,3.2
			c-0.1,2-0.2,3.8-0.3,5.6c-0.4,0.2-0.8,0.3-1.2,0.5c-2,1-2.4,3.3-2.1,5.2c0.4,2.5,1.4,5.7,3.9,6.9c2.1,1,3.8,0.7,5.9,1
			c0.2,0.2,0.4,0.6,0.8,1c0.6,0.9,1.1,1.8,1.5,2.8c1.1,2.2,2,4.6,3,6.9c2.1,4.5,3.3,9.4,4.7,14.1c2.7,9.4,5.2,18.8,8.3,28
			c1.3,3.9,2.5,7.8,3.3,11.9c0.6,3.2,1.4,6.6,3,9.5c1,1.7,9.1,11.5,12.1,14.7c0.2,0.7,0.3,1.3,0.4,1.9c0.2,0.7,0.3,1.4,0.4,2.1
			c-0.5,4.4-2.1,16.3-1.5,17.6c-0.3,1.3-0.6,2.5-1,3.8c-3.4,13.2-8.4,26-8.1,39.5c-3.6-1.4-7.4-3-11.1-4c-0.3-0.3-0.6-0.5-1-0.7
			c-1.5-0.8-3.7-1.3-5.3-0.7c-0.2,0.1-0.3,0.1-0.5,0.1c-1.1,0-2.2,0-3.3,0.3c-1.6,0.5-3,1.5-4,2.7c-0.6,0.4-1.2,1-1.8,1.6
			c-5.7,5.7-7.4,15.2-8.4,22.9c-0.3,2.3-0.5,4.7-0.8,7c-2.8-1.6-6.3-2.2-9.4-2.7c-4.8-0.8-9.6-1.4-14.3-2.5
			c-3.4-0.8-7.3,2.8-5.5,6.2c-0.7,0.4-1.3,1-1.6,1.6c-1.3,2.5-0.3,6.1,2.8,6.7c1.8,0.3,3.3-0.1,4.8-0.6c4.4-0.8,8.9-1.9,13.3-1.1
			c5.1,0.9,2.7,4.8,1.7,8.4c-1,3.7-1.5,8,0.9,11.3c1.9,2.4,4.5,3.8,7.4,4.2c0.6,0.2,1.2,0.3,1.9,0.2c10.1-0.9,17.4-10.2,17.8-20.1
			c0.2-0.3,0.3-0.7,0.5-1.1c0.2-0.6,0.4-1.3,0.6-1.9c0.6-1.5,1.2-3.2,1.7-4.8c0.8-1.9,1.7-3.8,2.8-5.5c2.4,2.6,4.8,5.2,7.7,7.2
			c2.2,1.5,4.5,2.7,6.9,3.7c1.3,0.7,2.6,1.3,4,1.9c-0.9,9.3-6.7,17.8-11.4,25.6c-3.8,6.4-12.2,4-17.6,0.6c-0.9-0.7-1.7-1.3-2.6-1.9
			c-4.3-2.9-9.7,4-5.6,7.2c0,0,0.1,0,0.1,0c-5.1,0.9-10.4,0.5-15.3,1.7c-4.6,1.2-4.2,7.5,0,8.9c1.4,0.4,2.7,0.7,4.1,0.9
			c-0.9,0.6-1.8,1.2-2.7,1.8c-4.3,2.7-1.6,9.8,3.5,8.4c5.2-1.5,9.2-5.3,14.2-7c5.2-1.8,9.7,4.7,13.6,7c10,5.8,21.4-2.9,27.7-10.2
			c3.3-3.8,6.1-8,9.1-12.1c1.5-2,3.1-3.9,4.3-6.1c1.4-2.5,2.3-5.3,4.2-7.4c0.5-0.5,2.9-0.7,3.6-0.9c1.5-0.5,2.7-1.6,3.9-2.7
			c0.3-0.3,0.6-0.6,0.9-0.8c3.4-1.5,6.5-3.3,8.7-7.1c2.9-4.9,5-11.8,5-17.5c0-0.6-0.1-1.1-0.3-1.5c-0.2-9.7,5.8-18.1,9-26.9
			c3.3-9.2,6.4-17.9,13.7-24.8c7.3-6.9,18.3-5.4,27.4-5.1c5.4,0.2,11,0.3,16.5-0.2c0.6,0.2,1.3,0.3,2.1,0.2c0.4-0.1,0.8-0.1,1.2-0.2
			c0,0,0.1,0,0.1,0c3.6-0.5,7.1-1.4,10.6-2.4c0.5-0.1,1-0.4,1.4-0.6c1-0.3,2-0.7,3.1-1.2c1.4-0.7,2.7-1.4,4-2.2
			c0.3,0,0.7-0.1,1.1-0.3c6.3-2.4,13.3-4.1,19.2-7.6c3.7-2.3,6.8-5.5,9.9-8.6c3.7-2,7.3-4.4,11.2-6.2c1.7-0.2,9.3-1,10.3-1.6
			c6.2,2.7,12.9-0.3,19-2.4C400.6,116.5,402.5,114,401.6,111.6z"/>
	</g>
	<g>
		<path fill="#FFFFFF" d="M50.9,202.2c0,5.8-0.6,11.1-1.6,15.7c-1.1,4.7-2.9,8.6-5.6,11.9s-6,5.8-10.3,7.5
			c-4.2,1.7-9.5,2.6-15.7,2.6c-2,0-4-0.1-5.9-0.4c-2-0.3-3.7-0.7-5.4-1.1c-1.6-0.5-3-1-4.2-1.5c-1.2-0.5-2-1-2.4-1.4
			c-0.4-0.4-0.7-0.9-1-1.3c-0.3-0.5-0.5-1.1-0.7-1.8c-0.2-0.8-0.3-1.7-0.4-2.8c-0.1-1.1-0.1-2.5-0.1-4.3c0-2.3,0-4.2,0.1-5.7
			c0.1-1.6,0.3-2.8,0.5-3.7c0.2-0.9,0.6-1.5,1-1.9c0.4-0.4,1-0.5,1.6-0.5c0.6,0,1.3,0.2,2.1,0.6c0.8,0.4,1.7,0.9,2.7,1.3
			c1,0.5,2.1,0.9,3.5,1.3c1.3,0.4,2.9,0.6,4.7,0.6c1.8,0,3.4-0.2,4.7-0.7c1.4-0.5,2.5-1.4,3.4-2.6c0.9-1.2,1.6-2.9,2-4.9
			c0.5-2,0.7-4.7,0.7-7.9v-88.3c0-0.7,0.2-1.2,0.6-1.7c0.4-0.5,1.1-0.9,2.1-1.2c1-0.3,2.3-0.6,4-0.7c1.7-0.2,3.8-0.2,6.4-0.2
			c2.5,0,4.6,0.1,6.3,0.2c1.7,0.2,3,0.4,4,0.7c1,0.3,1.8,0.7,2.2,1.2c0.4,0.5,0.6,1.1,0.6,1.7V202.2z"/>
		<path fill="#FFFFFF" d="M161.3,234.6c0,0.7-0.2,1.2-0.5,1.7c-0.3,0.5-0.9,0.9-1.7,1.2c-0.8,0.3-1.9,0.6-3.3,0.7
			c-1.4,0.2-3.1,0.2-5.1,0.2c-2.2,0-4-0.1-5.3-0.2c-1.4-0.2-2.4-0.4-3.2-0.7c-0.8-0.3-1.4-0.7-1.7-1.2c-0.3-0.5-0.5-1.1-0.5-1.7
			v-10.2c-4.9,5.3-9.9,9.3-14.9,11.9s-10.3,4-15.7,4c-6.1,0-11.2-1-15.3-3c-4.1-2-7.5-4.7-10-8.1c-2.5-3.4-4.4-7.4-5.5-12
			c-1.1-4.5-1.6-10.2-1.6-16.9V146c0-0.7,0.2-1.2,0.5-1.7s1-0.9,2-1.2c1-0.3,2.3-0.6,3.9-0.7c1.6-0.2,3.6-0.3,6-0.3
			c2.4,0,4.5,0.1,6.1,0.3c1.6,0.2,2.9,0.4,3.8,0.7c1,0.3,1.6,0.7,2,1.2c0.4,0.5,0.6,1.1,0.6,1.7v50c0,4.6,0.3,8.2,0.9,10.6
			c0.6,2.5,1.5,4.6,2.7,6.3c1.2,1.8,2.8,3.1,4.7,4.1s4.1,1.4,6.6,1.4c3.2,0,6.4-1.2,9.6-3.5c3.2-2.3,6.6-5.7,10.3-10.1V146
			c0-0.7,0.2-1.2,0.5-1.7c0.4-0.5,1-0.9,2-1.2c1-0.3,2.2-0.6,3.8-0.7c1.6-0.2,3.6-0.3,6.1-0.3c2.4,0,4.5,0.1,6.1,0.3
			c1.6,0.2,2.8,0.4,3.8,0.7c0.9,0.3,1.6,0.7,2,1.2c0.4,0.5,0.6,1.1,0.6,1.7V234.6z"/>
		<path fill="#FFFFFF" d="M271,234.6c0,0.7-0.2,1.2-0.6,1.7c-0.4,0.5-1.1,0.9-2,1.2c-0.9,0.3-2.2,0.6-3.8,0.7
			c-1.6,0.2-3.6,0.2-6,0.2c-2.4,0-4.5-0.1-6.1-0.2c-1.6-0.2-2.9-0.4-3.8-0.7c-0.9-0.3-1.6-0.7-2-1.2c-0.4-0.5-0.6-1.1-0.6-1.7v-50.5
			c0-4.3-0.3-7.7-0.9-10.1c-0.6-2.4-1.5-4.5-2.7-6.3c-1.2-1.8-2.7-3.1-4.6-4.1c-1.9-1-4.1-1.4-6.6-1.4c-3.2,0-6.4,1.2-9.6,3.5
			c-3.2,2.3-6.6,5.7-10.1,10.1v58.9c0,0.7-0.2,1.2-0.6,1.7c-0.4,0.5-1.1,0.9-2,1.2c-1,0.3-2.2,0.6-3.8,0.7c-1.6,0.2-3.6,0.2-6.1,0.2
			c-2.4,0-4.5-0.1-6.1-0.2c-1.6-0.2-2.9-0.4-3.8-0.7c-1-0.3-1.6-0.7-2-1.2s-0.6-1.1-0.6-1.7V146c0-0.7,0.2-1.2,0.5-1.7
			c0.3-0.5,0.9-0.9,1.8-1.2c0.9-0.3,2-0.6,3.3-0.7c1.4-0.2,3.1-0.3,5.1-0.3c2.1,0,3.9,0.1,5.3,0.3c1.4,0.2,2.5,0.4,3.2,0.7
			c0.8,0.3,1.3,0.7,1.6,1.2s0.5,1.1,0.5,1.7v10.2c4.9-5.3,9.9-9.3,14.9-11.9c5.1-2.6,10.3-4,15.8-4c6,0,11.1,1,15.2,3
			c4.1,2,7.5,4.7,10,8.1c2.6,3.4,4.4,7.4,5.5,12c1.1,4.6,1.7,10.1,1.7,16.5V234.6z"/>
		<path fill="#FFFFFF" d="M375.4,152.2c0,3.2-0.4,5.5-1.1,7.1c-0.7,1.5-1.6,2.3-2.7,2.3h-10.4c1.5,1.6,2.5,3.4,3.1,5.4
			c0.6,2,0.9,4.1,0.9,6.3c0,5.2-0.9,9.8-2.6,13.8c-1.7,4-4.2,7.4-7.4,10.1c-3.2,2.7-7.1,4.8-11.6,6.3c-4.5,1.4-9.6,2.1-15.1,2.1
			c-2.8,0-5.6-0.3-8.1-1c-2.6-0.7-4.6-1.5-6-2.4c-0.8,0.9-1.5,1.9-2.1,3.1c-0.6,1.2-0.9,2.5-0.9,4c0,1.9,0.8,3.5,2.5,4.7
			c1.7,1.2,4.1,1.9,7.1,2l21.6,0.8c5,0.2,9.5,0.9,13.5,2.1c3.9,1.2,7.2,2.9,9.9,5.2c2.7,2.2,4.7,4.9,6.2,8c1.4,3.1,2.1,6.7,2.1,10.6
			c0,4.4-1,8.5-2.9,12.4c-1.9,3.9-4.8,7.2-8.6,10.1c-3.8,2.8-8.7,5.1-14.4,6.8c-5.8,1.7-12.6,2.5-20.3,2.5c-7.5,0-14-0.6-19.3-1.8
			c-5.3-1.2-9.7-2.8-13.1-5c-3.4-2.1-5.9-4.7-7.4-7.6c-1.6-2.9-2.3-6.2-2.3-9.7c0-2.2,0.3-4.3,0.8-6.3c0.6-2,1.4-3.9,2.5-5.7
			c1.1-1.8,2.4-3.6,4-5.2c1.6-1.7,3.4-3.2,5.5-4.8c-2.8-1.5-5-3.6-6.6-6.2c-1.6-2.6-2.3-5.5-2.3-8.6c0-3.9,0.9-7.5,2.7-10.7
			c1.8-3.2,4.1-6.1,7-8.7c-2.3-2.3-4.2-5.1-5.6-8.3c-1.4-3.2-2.1-7.3-2.1-12.1c0-5.2,0.9-9.8,2.7-13.9c1.8-4.1,4.4-7.5,7.6-10.3
			c3.2-2.8,7.1-5,11.6-6.5c4.5-1.5,9.5-2.2,14.9-2.2c2.8,0,5.4,0.2,8,0.5c2.6,0.3,4.9,0.8,7.1,1.4h28.1c1.1,0,2,0.7,2.7,2.2
			C375,146.3,375.4,148.7,375.4,152.2z M349.1,243.8c0-3-1.2-5.3-3.6-6.9c-2.4-1.6-5.7-2.4-9.8-2.6l-17.8-0.5
			c-1.7,1.3-3.1,2.5-4.1,3.6c-1,1.2-1.9,2.3-2.5,3.3c-0.6,1.1-1,2.1-1.2,3.1c-0.2,1-0.3,2-0.3,3.1c0,3.3,1.7,5.8,5,7.5
			c3.3,1.7,8.1,2.6,14.1,2.6c3.8,0,7-0.4,9.5-1.1c2.6-0.8,4.7-1.8,6.3-3c1.6-1.3,2.7-2.7,3.4-4.2
			C348.8,247.2,349.1,245.6,349.1,243.8z M343.3,173.1c0-4.8-1.3-8.5-4-11.1c-2.6-2.6-6.4-4-11.2-4c-2.4,0-4.6,0.4-6.5,1.2
			c-1.9,0.8-3.4,2-4.6,3.4c-1.2,1.4-2.1,3.1-2.7,5c-0.6,1.9-0.9,3.9-0.9,5.9c0,4.5,1.3,8.1,4,10.7c2.6,2.6,6.3,3.9,11,3.9
			c2.5,0,4.7-0.4,6.6-1.2c1.9-0.8,3.4-1.9,4.6-3.3s2.2-3,2.8-4.8C343,177,343.3,175.1,343.3,173.1z"/>
		<path fill="#FFFFFF" d="M464,227.1c0,2-0.1,3.7-0.3,5c-0.2,1.4-0.4,2.5-0.7,3.4c-0.3,0.9-0.7,1.5-1.2,1.9
			c-0.5,0.4-1.1,0.6-1.7,0.6h-58.9c-2.2,0-4-0.6-5.5-1.9c-1.5-1.3-2.2-3.4-2.2-6.3V113.1c0-0.7,0.2-1.3,0.6-1.8
			c0.4-0.5,1.1-1,2.1-1.3c1-0.3,2.3-0.6,4-0.8c1.7-0.2,3.8-0.3,6.3-0.3c2.6,0,4.7,0.1,6.4,0.3c1.7,0.2,3,0.5,4,0.8
			c1,0.3,1.7,0.8,2.1,1.3c0.4,0.5,0.6,1.1,0.6,1.8v103.4h40.4c0.7,0,1.2,0.2,1.7,0.5c0.5,0.4,0.9,1,1.2,1.8c0.3,0.8,0.6,1.9,0.7,3.3
			C464,223.4,464,225.1,464,227.1z"/>
	</g>
</g>
</svg>
