<?xml version="1.0" encoding="utf-8"?>
<!-- Generator: Adobe Illustrator 18.0.0, SVG Export Plug-In . SVG Version: 6.00 Build 0)  -->
<!DOCTYPE svg PUBLIC "-//W3C//DTD SVG 1.1//EN" "http://www.w3.org/Graphics/SVG/1.1/DTD/svg11.dtd">
<svg version="1.1" id="Layer_1" xmlns="http://www.w3.org/2000/svg" xmlns:xlink="http://www.w3.org/1999/xlink" x="0px" y="0px"
	 viewBox="0 0 612 792" enable-background="new 0 0 612 792" xml:space="preserve">
<g>
	<path fill="#FFFFFF" d="M47.7,417.6c3.7,3.7,8.4,3.5,11.8-0.4c10.4-11.6,9.9-29.1,10.1-43.7c0.2-13,2.1-24.9,5.8-36.6
		c13.6-17.5,19.8-38.8,28.3-59c5.1-7.3,10.7-14.4,17.4-20c1.1-0.9,1.8-2,2.2-3.1c0.9-0.1,1.7-0.3,2.6-0.3c0.1,0.1,0.1,0.1,0.2,0.2
		c-0.9,1.4-1.3,3.1-1,5.1c1,6.9,2.1,13.8,3.2,20.7c12.7,81,33.1,159.4,89.4,220.9c6.8,7.4,13.9,14.6,21.5,21.2
		c6.5,5.5,15.5,10.6,20.2,17.9c7.1,10.8-2.8,27.8-5.6,39c-5.5,21.9-9.7,47.1-5.5,69.5c3.5,19,16,36.6,37.4,31
		c24.5-6.4,54.9-31.7,59.2-58.3c1.6-9.9-5.7-62.2,8.2-59.4c12.9,2.6,25.3,8.8,37.9,12.5c16,4.8,41.1,9.1,44.5-10.2
		c16.8-5.7,26.1-34.5,29.8-54.7c11,9.9,19.3,22.5,31.3,31.3c11.9,8.6,25.6,13,40.2,12.7c21.4-0.4,66.1-1.7,73.6-28.1
		c8.3-28.8-33.9-49.4-53.9-57.9c-12.9-5.5-25.9-8.5-39.7-11.1c-4.6-0.9-8.8-1.9-12.4-3.2c-3.8-3.2-8-6-12.4-8.5
		c-3-4.3-4.2-10.2-3.2-18.5c10.3-19.6,14-43.7,14.3-67.1c0.7-0.9,1.1-2.2,1.2-3.8c0.6-32.7,2.1-78-19.5-105.2
		c-9.7-26.9-28.6-50.5-49.2-69.7c-20.4-19-44-35.9-71.3-42.2c8.3-23,46.2-19.4,65.2-17.9c16.2,1.3,32.5,2.7,48.5,5.3
		c15.9,2.6,29.6,12.3,45.8,13.9c3.6,0.4,8.3-2.5,8.2-6.7c-0.3-46.5-67.6-66.1-103.4-72.3c-47.3-8.2-135.1-11.9-146.2,52.8
		c-1.1,6.7,1.2,8.7-4.2,11c-6.8,2.9-14.5,8.5-19.7,0.6c-7.2-11-12.4-22.1-16.5-34.3c1.1-4.7,0.8-9.9-1.2-14.7
		c-1.1-2.7-2.4-5.4-3.4-8.2c-0.1-0.1-0.1-0.3-0.1-0.4c-0.9-5.2-3.5-9.7-7-13c-7-18.2-17-34.8-35.2-44c-25.6-13-52.1,22.7-51.9,46.5
		c0.4,29,12.5,55.4,23.4,81.5c4.7,11.5,11.6,25.5,10.6,38.4c-0.8,9.6-6.6,13.5-14,14.7c-19.2-10.6-38.5-10.5-59.9-0.6
		c-1.2,0.5-2.1,1.3-2.8,2.1c-1.4,0.7-2.7,1.3-4.1,2c-13.3,7.4-24.3,21.7-33.8,33.4c-22.1,26.7-42,55.3-43.2,91.6
		C18.6,352.9,24.4,393.8,47.7,417.6z"/>
</g>
</svg>
