<?xml version="1.0" encoding="utf-8"?>
<!-- Generator: Adobe Illustrator 18.0.0, SVG Export Plug-In . SVG Version: 6.00 Build 0)  -->
<!DOCTYPE svg PUBLIC "-//W3C//DTD SVG 1.1//EN" "http://www.w3.org/Graphics/SVG/1.1/DTD/svg11.dtd">
<svg version="1.1" id="Layer_1" xmlns="http://www.w3.org/2000/svg" xmlns:xlink="http://www.w3.org/1999/xlink" x="0px" y="0px"
	 viewBox="0 216.9 100 100" enable-background="new 0 216.9 100 100" xml:space="preserve">
<rect id="Twitter_3_" x="0" y="216.9" fill="#2CA9E1" width="100" height="100"/>
<path id="Twitter_2_" fill="#FFFFFF" d="M85,245.2c-2.6,1.1-5.3,1.9-8.2,2.3c3-1.8,5.2-4.6,6.3-7.9c-2.8,1.6-5.8,2.8-9.1,3.5
	c-2.6-2.8-6.4-4.5-10.5-4.5c-7.9,0-14.4,6.4-14.4,14.4c0,1.1,0.1,2.2,0.4,3.3c-11.9-0.6-22.5-6.3-29.6-15c-1.2,2.1-1.9,4.6-1.9,7.2
	c0,5,2.5,9.4,6.4,12c-2.4-0.1-4.6-0.7-6.5-1.8c0,0.1,0,0.1,0,0.2c0,7,5,12.8,11.5,14.1c-1.2,0.3-2.5,0.5-3.8,0.5
	c-0.9,0-1.8-0.1-2.7-0.3c1.8,5.7,7.1,9.9,13.4,10c-4.9,3.9-11.1,6.1-17.8,6.1c-1.2,0-2.3-0.1-3.4-0.2c6.4,4.1,13.9,6.5,22,6.5
	c26.4,0,40.9-21.9,40.9-40.9c0-0.6,0-1.2,0-1.9C80.6,250.6,83.1,248.1,85,245.2z"/>
</svg>
