<?xml version="1.0" encoding="utf-8"?>
<!-- Generator: Adobe Illustrator 18.0.0, SVG Export Plug-In . SVG Version: 6.00 Build 0)  -->
<!DOCTYPE svg PUBLIC "-//W3C//DTD SVG 1.1//EN" "http://www.w3.org/Graphics/SVG/1.1/DTD/svg11.dtd">
<svg version="1.1" id="Layer_1" xmlns="http://www.w3.org/2000/svg" xmlns:xlink="http://www.w3.org/1999/xlink" x="0px" y="0px"
	 viewBox="0 0 612 792" enable-background="new 0 0 612 792" xml:space="preserve">
<path fill="#FFFFFF" d="M586.8,504c-12.8-1.4-54.2,8.2-61.5-17c-2.6-9.2-10.4-12.3-17.9-17.5c-16.5-11.7-30.1-10.4-49.7-6.5
	c-17,3.4-33.5,17.6-50.6,20.8c-10.9,2-23.6,3.9-35.4,2.5c-4.2-1-8.2-2.5-11.2-5.7c-4.2-4.3-5.8-13.7-8.1-19.1
	c-7.4-17.7-22.9-30-37.1-41.7c-16.2-13.1-32.9-24.6-51.8-33.3c-32.1-14.6-66.8-21.6-101.7-23.6c-0.1-4.5-0.6-9.1-1.6-13.6
	c-2-8.9-7-16.6-13.7-22.2c2.6-2,5.1-4.3,7.7-6.5c8.9-7.6,20.3-13.4,30.5-19c2-1.1,4.1-1.9,6.1-2.8c4.2-0.9,8.5-1.6,12.7-2.2
	c12.7-0.2,39.3,1,40,0.4c41.2-0.3,83.6-3.7,124-12.5c26.3-5.7,61.1-15.6,73.9-42.3c9.9-15.1,15.5-33,15.9-51.5c0-1-0.6-4.1-0.6-4.9
	c-0.1-5.9-9.1-5.9-9,0c0.2,7.4-2,14.4-5.8,20.4c-3.8,2.7-13.8,13.4-20.7,16.4c-21.2,9.1-44.4,12.8-67,17c-25.4,4.7-51.5,3.3-77,1.5
	c-52.1-3.6-105.5-8.8-154.7,12.9C84,270.9,60,312.9,52.8,353.5c-4.5,25.2-4.3,51.5-11.3,76.2c-0.2,0.6-0.3,1.1-0.5,1.5
	c-0.7,0-1.4,0.1-2.1,0.1c-8.7,0.7-16.4,3-24,7.1c-0.1,0-0.1,0-0.1,0C5.6,442.2-0.9,449,0.4,461.4v0.1c0,1.4,1.8,18.6,2,19.5
	c2.5,9.7,2.8,19.6,5.1,29.2c2,8.1,6.9,15.1,9.1,23.2v9.4c0,0.7,0.1,1.2,0.3,1.7c-4.8,3-0.3,10.7,4.7,7.8c8-4.8,7.6-12.8,9.2-20.8
	c10.7,1.6,20.8,5.8,31.3,8.5c1.4,0.4,8.6,4.9,10.7,8c3.4,4.7,11.2,0.2,7.8-4.6c-7.4-10.5-18.2-17.9-26.4-27.5
	c2.6,0.4,27.2,13.5,32.8,12.1c11-2.8-14-15.5-19-18.2c-0.7-0.7-1.5-1.3-2.7-1.5c-1.2-0.6-2.4-1.2-3.6-1.9c3.5,1.3,7,2.5,10.6,2.7
	c5.2,0.4,5.9-7.6,1.2-9c-4-1.2-17.4-5.7-17.4-5.7c0.4-0.1-16.1-14.7-22.2-20.8c21.8,2.2,50.7,4.5,53.5-21.7c0.2-0.1,0.5-0.2,0.7-0.3
	c6.3,9.7,16.4,17.1,26.3,23.7c7.2,5.7,14.9,10.8,22.6,15.6c1.8,1.2,3.7,2.3,5.3,3.5c1.5,1.1,3,2.1,4.5,3.2
	c18.5,13.2,65.9,31.1,68.8,32.3c9.5,3.8,20.1,3.9,30.4,4.7c1.1,1.3,2.2,2.6,3.4,3.9c-9.9,9.5-5.3,28.1,0,40.3
	c6,13.8,14.6,26.4,23,38.6c-2.4,1.1-4.7,2.4-7,3.8c-4.8,3.2-0.3,11.1,4.5,7.9c2.8-1.9,5.7-3.4,8.8-4.2c0.5,0.3,1,0.7,1.5,0.9
	c-1.6,1.5-3.3,3-4.9,4.6c-4.6,4.8-6.2,11.1-6.8,17.6c-0.4,5.9,8.5,5.8,9,0c0.5-6.2,2.6-10.1,7.2-14c1.3-1.2,2.5-2.3,3.7-3.5
	c2.6,2.8,5.7,5.3,9.2,6.9c1,0.4,11.5,12.2,15.4,18.4c3.1,5,10.9,0.4,7.8-4.6c-4.2-6.7-8.5-13.1-13.5-19c1.8,0.6,3.6,1.1,5.5,1.6
	c7.5,1.9,16.6,2.9,20.9,10.1c3,5.1,10.8,0.5,7.8-4.6c-2.1-3.7-4.9-6.1-8-7.9c-0.4-0.8-1-1.5-1.7-2c-3-2.3-6.2-4.3-9.7-5.6
	c-0.2-1-0.9-1.9-2-2.6c-2-1.2-4-2.3-6-3.4c7.7-0.6,15.4-0.7,22.1,3.1c5,2.9,9.6-5,4.5-7.9c-11.7-6.6-24.3-2.9-36.8-3.2
	c-0.1-1.2-0.7-2.3-1.8-3.2c-11.1-8.5-18.4-22.6-18.4-36.7c12.5-1.8,25-1,37.4,0.5c7.5,1.8,15,2.7,22.5,3.1c18.4,2.4,36.8,4,55.3-1.6
	c9.8,11.9,27.9,15.1,42.4,17.1c29,3.9,58.2-1.1,87.3-1.3c1,0,7.4-0.8,9.9-0.9c6.3,0,25.5-1.3,26.8-1.9c3.1-0.5,6.2-1,9.2-1.8
	c4.8-0.2,9.6-0.8,14.3-2.5c10.3-3.8,13.2-14.1,7.3-22.6c-2.4-3.6-5.7-3.3-8.1,3.3c-2.8,2-5.5,3.3-8.3,5.2v-0.2
	c0.2-1.3-0.2-2.7-1.3-3.8c-1.7-1.7-4.6-1.8-6.3,0c-0.6,0.6-1,1.3-1.6,2c0,0,0,0-0.1,0.1c0,0-0.6,1.4-2.3,2.9
	c-1.7,1.2-3.6,2.2-5.5,3.2c0.6-1.2,1.2-2.4,1.7-3.7c1.8-5.6-6.8-8-8.7-2.4c-1.1,3.2-3.3,5.3-6,6.8c-0.7,0-1.3,0.1-1.9,0.2
	c-0.4,0.1-0.7,0.2-1.2,0.4v-0.6c0-0.2-0.1-0.4-0.1-0.7c0.2-0.3,0.3-0.4,0.3-0.7c2.3-5.3-5.4-10-7.7-4.6c-1.1,2.5-3.1,3.7-5.5,4.3
	c1.5-3.3-2.3-8.1-6.4-5.9c-11.1,5.8-23.4,5.5-35.7,5.1c-1.3-2.5-3.4-4.5-6.6-5.7c16.1-0.4,23-4.2,38.7-7.5c2.8-0.2,14.2-5,16.9-5.3
	c4.5-0.9,49.6-15.8,66.1-26.5C620.4,515,603.2,507.5,586.8,504"/>
</svg>
