<?xml version="1.0" encoding="utf-8"?>
<!-- Generator: Adobe Illustrator 18.0.0, SVG Export Plug-In . SVG Version: 6.00 Build 0)  -->
<!DOCTYPE svg PUBLIC "-//W3C//DTD SVG 1.1//EN" "http://www.w3.org/Graphics/SVG/1.1/DTD/svg11.dtd">
<svg version="1.1" id="Layer_1" xmlns="http://www.w3.org/2000/svg" xmlns:xlink="http://www.w3.org/1999/xlink" x="0px" y="0px"
	 viewBox="0 0 612 792" enable-background="new 0 0 612 792" xml:space="preserve">
<path fill="#FFFFFF" d="M608.2,451.2c-8.4-18.2-25-25.8-43-31c-19.3-5.5-39.5-5.1-59-9.2c-22.4-4.7-39.6-16.9-54.9-33.7
	c-14.3-15.8-19.2-40.6-28.9-59.3c-6.3-12.2-13.1-24.1-20.8-35.3c-3.5-8.4-9.3-15.2-16.3-20.8c-32.4-35.9-79.3-37.1-124-34.5
	c-24.7,1.5-48.6,6-72.3,12.6c-25.9,7.2-50.9,6-77.5,5.4c-21.2-0.4-39.3,0.5-57,13.6c-15.1,11.2-28.9,25.4-43.1,37.8
	c-17.4,15.1-8.6,39.8,8.8,49.6c1.2,0.7,2.5,1.3,3.8,1.9c8.1,6,10.9,7.3,23,10.2c17.9,1.5,52.7,1.1,56.6,1.4c2.5,0.2,4.7,0,6.6-0.7
	c5.5,7.1,10,18.5,15.7,25.5c6,7.5,13.3,10.7,17.6,19.4c2.7,5.3,6.1,8,10.2,10.2c-1.4,3.7-9.4,18.9-8.1,22.8
	c-1.7,0.7-3.3,1.4-4.8,2.4c-0.2,0.1-0.3,0.2-0.5,0.4c-0.2,0.1-0.5,0.1-0.8,0.2c-1.8,0.4-3.6,0.6-5.3,1.1
	c-8.8,2.6-14.2,11.9-11.8,21.1c2.4,8.9,26.5,11.1,29,9.9c2.4-1,4.3-1.8,6.3-3.1c0.4-0.2,0.8-0.4,1.1-0.7c7.2-2.1,12.8-8.1,12.8-16.4
	c0-1.7,11.4-13.5,10.9-15.1c1.1-0.6,7-17.7,20.2-18.8c17.8-1.5,37.7-2.8,55.3-0.4c6.7,0.9,11.2,1.9,17.5,4.1c1.6,0.5,5.1,2,6.8,2.8
	c-8.1-0.1-16.2,0.2-33.1,3.5c-3.6-0.2-7.2,0.2-10.9,0.2c-9.2,0.2-15.2,7.2-16.8,17.2c-2.1,13.6-1.5,16.4,7.6,16.8
	c8.7,0.3,14.8,9,25.2,4c8-3.8,24.5-7,28.1-7.3c19.8,0.3,68.2-14.4,68.7-15c5.3-7.1,24.7-5,29.8-7.9c0.7-0.5,8.6-1.8,9.4-2.3
	c7.2-0.9,6.2-7.3,13.6-7.5c4.6-0.1,8.8,2.8,11.4,0.4c1,0,1.8,0,2.6,0c-0.3,6.2,6.7,9.4,8.3,15.6c0,0,5.4,6.7,1.1,0.5
	c9,13.4,17.9,26.9,27.9,39.6c13.7,17.3,31.1,27.8,50.7,36.7c35,15.7,81.6,20.5,101.3-20.9C614.3,483.9,614.9,466,608.2,451.2"/>
</svg>
