<?xml version="1.0" encoding="utf-8"?>
<!-- Generator: Adobe Illustrator 18.0.0, SVG Export Plug-In . SVG Version: 6.00 Build 0)  -->
<!DOCTYPE svg PUBLIC "-//W3C//DTD SVG 1.1//EN" "http://www.w3.org/Graphics/SVG/1.1/DTD/svg11.dtd">
<svg version="1.1" id="Layer_1" xmlns="http://www.w3.org/2000/svg" xmlns:xlink="http://www.w3.org/1999/xlink" x="0px" y="0px"
	 viewBox="0 0 123.1 105" enable-background="new 0 0 123.1 105" xml:space="preserve">
<path fill="#FFFFFF" d="M118.4,32.2c-2.1-0.6-3-2.5-4.4-4.1c-1.4-1.6-2.8-3.1-4.4-4.5c-3-2.6-6.4-4.6-10-6.4
	c-1.1-0.5-2.2-1.1-3.3-1.6c-0.1-0.1-0.2-0.2-0.4-0.3c-11.8-6.5-25.4-4.6-38.2-3.6c-3.4,0.3-6.6,0-9.8-1.2c-2.9-1.1-5.6-2.4-8.5-3.3
	C36.7,6.2,32,3.9,29.1,5.7c-0.6,0-1.1,0.3-1.3,0.8c-0.1,0.1-0.2,0.3-0.3,0.4c-0.9,2.3,1.3,4.6,3.5,6.2c0,0.3,0.1,0.5,0.4,0.8
	c2.3,1.8,1.3,5.4,0.8,8.2C22.1,30.8,12.5,41.5,9.5,55c-1.6,7.5,0,15.7-3.6,22.7c-1.5,0.9-5.6,13.7-5.6,16.8c0,1.2,1.8,1.9,2.4,0.7
	c1.2-2.7,3.7-4.4,5.9-6.2c2.1-1.7,4.2-5,6.7-2.2c2.2,2.4,4.6,2.3,5.7-0.9c1.2-3.3,0.6-7.4,0.4-10.9c-0.2-4.2,0.3-7.7,2.4-11.5
	c5.1-8.7,15.3-13.9,23.9-18c5.4-2.5,11-4.9,17-5.7c0.9-0.1,4.4-0.6,5,0.4c-2.4,1.8-5.3,2.5-6.4,5.8c-0.3,0.8,0.4,1.6,1.2,1.6
	c0.7,0,1.3,0.1,1.9,0c0,0,0.1,0,0.1,0c3.2,0,6.4,0.1,9.4-1.2c1.9-0.9,3.3-2.5,4.9-3.8c0.4,0.4,7.1-6.5,10.9-6.7
	c4.4-0.3,8.9,2,13,3.2c4,1.1,8.3,2.1,12.4,1.4c2.2-0.3,5.1-1.1,5.6-3.6C123.5,33.8,120.6,32.8,118.4,32.2"/>
</svg>
