<?xml version="1.0" encoding="utf-8"?>
<!-- Generator: Adobe Illustrator 18.0.0, SVG Export Plug-In . SVG Version: 6.00 Build 0)  -->
<!DOCTYPE svg PUBLIC "-//W3C//DTD SVG 1.1//EN" "http://www.w3.org/Graphics/SVG/1.1/DTD/svg11.dtd">
<svg version="1.1" id="Layer_1" xmlns="http://www.w3.org/2000/svg" xmlns:xlink="http://www.w3.org/1999/xlink" x="0px" y="0px"
	 viewBox="0 0 612 792" enable-background="new 0 0 612 792" xml:space="preserve">
<path fill="#FFFFFF" d="M5.9,524.8c11,34.2,37.1,56.2,68.8,66.8c18.6,6.2,42.8,7.9,62.5,8c20.2,0.1,39.6-5.1,57.6-14.1
	c18.5-9.2,36-21.3,52.3-34.1c16.6-12.9,29.4-29.1,44.5-43.8c3.9-3.8,9.7-9.9,15.3-10.2c17.4,7.7,35,16.9,48.5,29.7
	c1,1.4,1.9,2.7,2.9,4.2c15.1,23.5,23.2,54.5,14.9,82.1c-7.3,18.5-14.2,34.3-31.3,43.6c-18,9.7-40.9,1.4-46-0.2
	c-27.2-7.9-20.9-14.9-21.7-27.5c2.4-7.3,9-11.3,16.6-17c2.3-1.7,13.8-3.7,21.8-5.2c15.2-2.8,8.7-26.2-6.3-23.4
	c-19.3,3.6-37.3,5.6-57.1,22.5c-13.9,11.8-16.6,22.3-17.9,35.7c-1.8,18.9,2.4,31.5,13.5,47.5c10.2,14.5,24.5,24.5,41,30.4
	c16.5,5.7,38.7,6.2,56.5,3.5c19.7,0.2,45-19.9,46-20.7c12.2-9.3,17.6-20.7,25.5-33.5c13.9-22.5,25.8-43.2,28.8-70.1
	c3.3-28.5,1.6-58.1-14.7-82.6c-11.8-17.7-22.8-50.3-28.3-71.2c69.6-1.8,115.4,18,143,61.3c13.2,20.6,22.2,96.7-3.8,106.8
	c-8.7,3.4-21.9,3.1-29.9-0.2c-1.9-0.7-3.2-9.3-3.4-10.5c-0.3-1.2-0.7-2.4-0.4-5c0.3-2.3,1.1-4.8,1.9-7c2-6.3-2.4-13.4-8.5-15
	c-5.5-1.5-41.8,20.3-30.2,51c8.6,23,17.7,29.7,36.3,41.8c15.1,9.9,62.9,4.9,89.8-37.3c9.1-14.2,11.7-31.9,14.2-48.8
	c3.2-20.7,5.4-41.6,2.4-62.6c-3.9-26.7-12.9-45.5-26.6-60.9c-23.2-26.1-38.7-35.6-71.7-46.6c-11.8-3.9-30.7-9.5-47-12.2
	c-4.9-1.7-9.9-3.6-14.7-5.7c-3.4-1.5-23.8-8.5-27.2-10c21.5-21.3,62.2-35.5,84.2-56.6c26-25.1,44.3-54.2,45.7-89.5
	c2.6-65.6-50.7-114.1-111.6-121.7c-28.4-3.7-58.9,1.5-83.7,16.6c-13,8.1-24.3,18.4-33.6,30.8c-9.5,12.8-12.9,28.3-15.3,43.9
	c-2.5,16.5-3.8,34-9.9,49.7c-2.6,6.6-4.2,9.8-11.1,10.3c-9.9,0.8-18.4,3.3-25.2,11.1c-11.8,13.5-14.9,35.7-8.4,52.5
	c2,5.3,7.5,13.2,7.6,18.7c0.1,5.6-3.7,11.1-8.2,14.2c-13,9.1-29.3,13.5-45,14.8c-14,1.2-29.9,1.8-42.3-6.3
	c-25-16.2-33.1-53.2-32.8-81.5c0.1-13.4-2.7-32.6,7.8-41.6c11.6-10,20.3-14.6,32.1-10.9c20.9,6.3,27.2,41.7,16.6,45.4
	c-13.3,4.6-10.1,22.2,3.1,23.8c45.2,5.4,53.2-50.9,42.6-83.8c-6.3-19.6-17.7-34.7-37.7-40.6c-22.2-6.6-47.8-5.4-69.7,1.3
	c-66.1,20.3-76.4,110.8-55.8,168c12.6,34.7,35.4,62.3,69.9,75.8c36.5,14.4,76.1,10.4,114.5,10.2c-6.2,22.7-25,41.4-43.5,54.4
	c-24.9,17.5-54,30.5-84,35.3c-23.6,3.6-62,1.4-73.9-23.8c-5.7-11.9-6.2-28.9,4.4-38.3c10.5-9.4,26.5-9.5,39.5-6.8
	c12.2,2.6,19.1-10.9,11.6-20.3c-19.4-24.2-49.9-27.4-74.5-9.2C8.7,451.5-5.4,490.2,5.9,524.8"/>
</svg>
